<svg width="529" height="529" viewBox="0 0 529 529" fill="none" xmlns="http://www.w3.org/2000/svg">
<path d="M88.5348 526.453C143.33 471.658 192.779 521.107 247.575 466.311C302.37 411.516 252.921 362.067 307.493 307.495C362.289 252.699 411.738 302.148 466.309 247.576C521.105 192.781 471.656 143.332 526.452 88.5364M45.267 483.185C100.063 428.39 149.511 477.839 204.307 423.043C259.102 368.248 209.654 318.799 264.225 264.227C319.021 209.431 368.47 258.88 423.042 204.308C477.837 149.513 428.388 100.064 483.184 45.2684M2 439.917C56.7955 385.121 106.244 434.57 161.04 379.775C215.835 324.979 166.387 275.53 220.958 220.958C275.754 166.163 325.203 215.612 379.775 161.04C434.57 106.244 385.121 56.7955 439.917 2" stroke="url(#paint0_linear_226_1894)" stroke-width="4" stroke-miterlimit="10" stroke-linecap="round" stroke-linejoin="round"/>
<defs>
<linearGradient id="paint0_linear_226_1894" x1="489.499" y1="49.9998" x2="106.999" y2="457" gradientUnits="userSpaceOnUse">
<stop stop-color="#05A42C" stop-opacity="0.75"/>
<stop offset="1" stop-color="#05A42C" stop-opacity="0"/>
</linearGradient>
</defs>
</svg>
